<svg version="1.1" id="Layer_1" xmlns="http://www.w3.org/2000/svg" xmlns:xlink="http://www.w3.org/1999/xlink" x="0px" y="0px"
	 width="100%" viewBox="0 0 512 512" enable-background="new 0 0 512 512" xml:space="preserve">
<path fill="#000000" opacity="1.000000" stroke="none" 
	d="
M1.000000,198.000000 
	C1.000000,132.000000 1.000000,66.500000 1.000000,1.000000 
	C171.666672,1.000000 342.333344,1.000000 513.000000,1.000000 
	C513.000000,171.666672 513.000000,342.333344 513.000000,513.000000 
	C342.333344,513.000000 171.666672,513.000000 1.000000,513.000000 
	C1.000000,408.166656 1.000000,303.333344 1.000000,198.000000 
M476.899933,475.178833 
	C483.816132,475.178833 490.732330,475.178833 497.650085,475.178833 
	C497.650085,433.867218 497.650085,393.201477 497.650085,352.420502 
	C490.181091,352.420502 483.061035,352.420502 475.030487,352.228363 
	C460.957336,352.228363 446.884155,352.228363 432.714050,352.228363 
	C432.714050,393.553619 432.714050,434.216827 432.714050,474.984680 
	C447.394287,474.984680 461.684174,474.984680 476.899933,475.178833 
M170.054779,476.753876 
	C175.064240,480.218781 180.611420,481.623993 186.629013,480.773712 
	C196.186493,479.423279 205.721481,477.914581 215.271393,476.509491 
	C237.335190,473.263153 259.406738,470.069092 281.463623,466.776764 
	C285.276703,466.207642 288.854675,466.675446 290.380554,470.409424 
	C291.765411,473.798462 294.089508,473.136169 296.405029,472.857544 
	C300.258179,472.393921 304.057587,471.427124 307.916199,471.086212 
	C310.339172,470.872131 311.887451,470.619019 312.246735,467.663910 
	C312.728149,463.704803 315.502319,461.669678 319.366180,461.091614 
	C340.601410,457.914703 361.786804,454.443939 383.424377,455.589264 
	C392.896454,456.090637 402.417084,455.673584 411.915680,455.673584 
	C413.544922,455.673584 415.174164,455.673584 417.028687,455.673584 
	C417.028687,420.983582 417.028687,386.778778 417.028687,352.534546 
	C403.850037,352.534546 391.009277,352.534546 378.078949,352.534546 
	C379.798920,358.793884 381.643219,364.648071 382.968933,370.617432 
	C383.927765,374.934967 382.004211,378.124573 377.642029,379.454010 
	C373.905121,380.592896 370.195526,378.465302 368.696289,374.288086 
	C367.913239,372.106323 367.456238,369.807587 366.851654,367.561737 
	C360.527832,344.070648 346.182312,328.892914 321.761688,324.333191 
	C307.256927,321.624939 292.756226,322.567566 278.721527,326.618164 
	C265.828461,330.339203 255.119995,327.943054 244.844742,319.459290 
	C229.823914,307.057312 214.385498,295.148468 198.888321,283.340149 
	C186.942581,274.237946 170.676422,280.090485 167.500290,294.486359 
	C165.566666,303.250397 169.161789,309.967133 176.085037,315.336731 
	C195.429565,330.340271 214.739273,345.390198 233.920044,360.601685 
	C236.775360,362.866119 239.030563,363.279449 242.387894,361.844086 
	C257.575623,355.350983 273.248779,350.422089 289.695251,348.261230 
	C297.474640,347.239105 299.425934,348.324646 301.792450,355.695282 
	C301.030487,360.295288 298.207306,362.265503 293.681946,363.071075 
	C284.870209,364.639618 275.936340,366.040833 267.429260,368.710236 
	C234.660263,378.992767 205.006363,395.708557 176.286957,414.172821 
	C172.100739,416.864258 168.455002,417.441711 163.754440,415.513885 
	C146.555267,408.459900 129.236755,401.693268 111.907219,394.962555 
	C105.003807,392.281250 99.517868,388.078705 95.368256,381.909912 
	C88.497459,371.695923 81.484772,361.575653 74.420525,351.493927 
	C66.566284,340.284729 53.133999,337.536102 42.534157,344.837311 
	C31.910770,352.154785 29.647173,365.547546 37.220558,376.988251 
	C44.106483,387.390472 51.091175,397.727692 58.080723,408.060822 
	C65.685753,419.303864 75.429543,428.255737 87.514153,434.439514 
	C114.856926,448.430969 142.287231,462.251312 170.054779,476.753876 
M391.063232,33.020470 
	C311.078979,33.013142 231.094711,32.966679 151.110626,33.073360 
	C144.766052,33.081821 139.288971,32.683117 138.272644,25.127922 
	C131.095886,25.127922 124.446190,25.127922 117.845772,25.127922 
	C115.294495,31.993687 113.843964,32.988335 106.479095,32.997505 
	C102.146622,33.002899 97.814117,32.994083 93.481644,32.999352 
	C78.972366,33.016991 71.005402,40.999580 71.002419,55.571621 
	C70.993301,100.062912 70.994850,144.554199 71.001480,189.045486 
	C71.003700,203.951141 78.914780,211.917252 93.734917,211.921173 
	C132.893921,211.931503 172.053680,212.051971 211.211258,211.816071 
	C218.908279,211.769699 224.087891,214.504059 228.025070,221.047440 
	C233.823227,230.683640 240.138184,240.008896 246.498505,249.878601 
	C253.208160,239.454346 259.673492,229.581680 265.949097,219.589859 
	C269.262939,214.313690 273.728241,211.812149 280.023102,211.872452 
	C296.351746,212.028839 312.682922,211.950500 329.013000,211.918457 
	C350.003296,211.877258 370.993561,211.789795 392.898590,211.908310 
	C396.062195,211.908951 399.230835,212.025436 402.388519,211.889206 
	C413.233337,211.421341 421.863068,203.158081 421.897919,192.404999 
	C422.048920,145.782654 422.045319,99.159302 421.904114,52.536892 
	C421.871399,41.738930 413.208557,33.370644 402.462677,33.034813 
	C398.975922,32.925846 395.479706,33.119167 391.063232,33.020470 
M37.641502,273.874512 
	C28.249628,274.400330 21.615732,279.078217 17.903723,287.592377 
	C14.138942,296.227570 15.837302,304.220032 21.828197,311.306671 
	C26.451601,316.775696 31.132156,322.208191 36.058472,327.399597 
	C37.054352,328.449066 39.538433,329.121674 40.877415,328.653961 
	C59.293621,322.221222 75.836601,327.334747 86.957672,343.245178 
	C93.919273,353.204834 100.541260,363.412079 107.793289,373.152649 
	C110.145828,376.312469 113.646950,379.201385 117.251862,380.741302 
	C131.302368,386.742950 145.729065,391.866669 159.757736,397.915558 
	C165.974838,400.596222 170.727509,400.533661 176.460007,396.403320 
	C184.480713,390.624268 193.378586,386.062622 202.493134,380.627167 
	C200.512909,379.910278 199.192673,379.418365 197.863113,378.953064 
	C174.026550,370.610931 150.209946,362.210876 126.337494,353.972656 
	C119.863457,351.738464 114.528343,348.190033 109.997452,343.020203 
	C92.206383,322.720367 74.229248,302.583710 56.378559,282.335876 
	C51.603340,276.919403 45.884472,273.735413 37.641502,273.874512 
z"/>
<path fill="#EBF3FE" opacity="1.000000" stroke="none" 
	d="
M391.983826,211.722260 
	C370.993561,211.789795 350.003296,211.877258 329.013000,211.918457 
	C312.682922,211.950500 296.351746,212.028839 280.023102,211.872452 
	C273.728241,211.812149 269.262939,214.313690 265.949097,219.589859 
	C259.673492,229.581680 253.208160,239.454346 246.498505,249.878601 
	C240.138184,240.008896 233.823227,230.683640 228.025070,221.047440 
	C224.087891,214.504059 218.908279,211.769699 211.211258,211.816071 
	C172.053680,212.051971 132.893921,211.931503 93.734917,211.921173 
	C78.914780,211.917252 71.003700,203.951141 71.001480,189.045486 
	C70.994850,144.554199 70.993301,100.062912 71.002419,55.571621 
	C71.005402,40.999580 78.972366,33.016991 93.481644,32.999352 
	C97.814117,32.994083 102.146622,33.002899 106.479095,32.997505 
	C113.843964,32.988335 115.294495,31.993687 117.845772,25.127922 
	C124.446190,25.127922 131.095886,25.127922 138.272644,25.127922 
	C139.288971,32.683117 144.766052,33.081821 151.110626,33.073360 
	C231.094711,32.966679 311.078979,33.013142 391.577026,33.435707 
	C397.410858,40.500252 399.201447,47.975063 399.140350,56.554745 
	C398.841400,98.547188 398.862061,140.543762 399.105499,182.536926 
	C399.166199,193.008713 399.057495,203.132721 391.983826,211.722260 
M306.462738,155.894226 
	C310.526764,150.523056 312.426971,144.523666 312.138947,137.743118 
	C311.769012,129.034790 307.395325,122.470726 301.202698,117.026306 
	C312.032745,97.810501 301.145325,78.752754 279.510101,78.442741 
	C273.519379,78.356903 267.523224,78.313698 261.535217,78.468842 
	C255.342789,78.629265 252.874466,81.221077 252.863281,87.480301 
	C252.821655,110.782356 252.820251,134.084579 252.863678,157.386627 
	C252.875641,163.805298 255.448578,166.286530 262.049500,166.319382 
	C269.538055,166.356659 277.027863,166.171661 284.516113,166.224930 
	C293.221924,166.286850 300.336548,163.000565 306.462738,155.894226 
M199.120682,78.678696 
	C174.942749,77.581863 154.228226,95.550865 152.877808,118.792473 
	C151.448853,143.385925 169.082535,164.514648 192.357162,166.096756 
	C217.480591,167.804550 238.301590,150.467224 240.237045,126.227875 
	C242.205795,101.571861 224.731232,80.957924 199.120682,78.678696 
M379.062714,95.103035 
	C380.120728,88.919304 375.590820,86.522804 371.358704,84.236000 
	C358.715637,77.404327 345.811615,75.546059 333.191833,84.051559 
	C326.026855,88.880615 322.851898,96.099007 323.743835,104.763107 
	C324.619385,113.267998 329.111511,119.205467 337.140961,122.400383 
	C342.226593,124.423935 347.303741,126.475677 352.323334,128.655975 
	C355.807465,130.169357 359.471954,131.514328 362.551056,133.659225 
	C368.022461,137.470627 368.210541,143.309906 362.953461,147.404312 
	C360.591278,149.244095 357.409302,150.616302 354.446991,150.988480 
	C346.257111,152.017471 339.088257,149.370483 333.051361,143.621811 
	C329.110626,139.869217 324.702454,139.681000 321.589844,142.876495 
	C318.371887,146.180206 318.663452,150.426895 322.603882,154.279327 
	C332.421021,163.877350 344.342682,167.656586 357.789642,165.862259 
	C373.509155,163.764648 384.267914,149.481537 381.058716,135.550049 
	C378.920502,126.267822 372.348419,120.859734 364.159851,117.189850 
	C357.956696,114.409775 351.581573,112.002182 345.226898,109.575592 
	C341.434357,108.127365 338.024536,106.478241 338.711975,101.566292 
	C339.402710,96.630714 342.991455,94.741638 347.362885,93.954239 
	C354.331818,92.698959 360.458435,94.883629 366.207825,98.674774 
	C371.951599,102.462219 375.243805,101.695068 379.062714,95.103035 
M140.315445,126.500137 
	C140.314270,113.342514 140.394547,100.184158 140.277466,87.027565 
	C140.219223,80.482819 135.000885,76.688683 129.723282,79.208672 
	C126.083954,80.946404 125.259949,84.252518 125.271034,87.995308 
	C125.314468,102.651787 125.290749,117.308479 125.287209,131.965088 
	C125.286240,135.962189 125.427292,139.967438 125.222916,143.954575 
	C124.881371,150.617538 119.683449,153.190918 114.068932,149.583252 
	C113.092812,148.956039 112.274475,148.077942 111.284889,147.477966 
	C107.599678,145.243668 104.107063,145.777069 101.468498,149.031021 
	C98.824104,152.292160 99.145805,155.820404 101.957809,158.994370 
	C107.423180,165.163269 117.606392,167.906586 125.286407,165.313492 
	C133.824661,162.430618 139.678955,155.031830 140.134140,145.981155 
	C140.443344,139.833313 140.271912,133.661316 140.315445,126.500137 
z"/>
<path fill="#FEDCCD" opacity="1.000000" stroke="none" 
	d="
M169.681946,476.141266 
	C142.287231,462.251312 114.856926,448.430969 87.514153,434.439514 
	C75.429543,428.255737 65.685753,419.303864 58.080723,408.060822 
	C51.091175,397.727692 44.106483,387.390472 37.220558,376.988251 
	C29.647173,365.547546 31.910770,352.154785 42.534157,344.837311 
	C53.133999,337.536102 66.566284,340.284729 74.420525,351.493927 
	C81.484772,361.575653 88.497459,371.695923 95.368256,381.909912 
	C99.517868,388.078705 105.003807,392.281250 111.907219,394.962555 
	C129.236755,401.693268 146.555267,408.459900 163.754440,415.513885 
	C168.455002,417.441711 172.100739,416.864258 176.286957,414.172821 
	C205.006363,395.708557 234.660263,378.992767 267.429260,368.710236 
	C275.936340,366.040833 284.870209,364.639618 293.681946,363.071075 
	C298.207306,362.265503 301.030487,360.295288 302.353088,355.347107 
	C307.225677,355.831451 312.305817,355.505493 315.684601,357.745605 
	C322.079376,361.985352 328.355011,367.003082 333.160187,372.929871 
	C347.460144,390.567749 352.520416,410.884613 346.851685,433.088196 
	C344.233795,443.342163 337.365173,450.670532 326.629944,452.955597 
	C317.590271,454.879730 308.379517,456.015076 299.230347,457.406403 
	C284.526001,459.642548 269.810974,461.808716 255.098557,463.991577 
	C240.385529,466.174561 225.678726,468.401825 210.953308,470.498291 
	C197.207031,472.455353 183.439896,474.266113 169.681946,476.141266 
z"/>
<path fill="#FDCABD" opacity="1.000000" stroke="none" 
	d="
M169.868362,476.447571 
	C183.439896,474.266113 197.207031,472.455353 210.953308,470.498291 
	C225.678726,468.401825 240.385529,466.174561 255.098557,463.991577 
	C269.810974,461.808716 284.526001,459.642548 299.230347,457.406403 
	C308.379517,456.015076 317.590271,454.879730 326.629944,452.955597 
	C337.365173,450.670532 344.233795,443.342163 346.851685,433.088196 
	C352.520416,410.884613 347.460144,390.567749 333.160187,372.929871 
	C328.355011,367.003082 322.079376,361.985352 315.684601,357.745605 
	C312.305817,355.505493 307.225677,355.831451 302.462341,354.999817 
	C299.425934,348.324646 297.474640,347.239105 289.695251,348.261230 
	C273.248779,350.422089 257.575623,355.350983 242.387894,361.844086 
	C239.030563,363.279449 236.775360,362.866119 233.920044,360.601685 
	C214.739273,345.390198 195.429565,330.340271 176.085037,315.336731 
	C169.161789,309.967133 165.566666,303.250397 167.500290,294.486359 
	C170.676422,280.090485 186.942581,274.237946 198.888321,283.340149 
	C214.385498,295.148468 229.823914,307.057312 244.844742,319.459290 
	C255.119995,327.943054 265.828461,330.339203 278.721527,326.618164 
	C292.756226,322.567566 307.256927,321.624939 321.761688,324.333191 
	C346.182312,328.892914 360.527832,344.070648 366.851654,367.561737 
	C367.456238,369.807587 367.913239,372.106323 368.696289,374.288086 
	C370.195526,378.465302 373.905121,380.592896 377.642029,379.454010 
	C382.004211,378.124573 383.927765,374.934967 382.968933,370.617432 
	C381.643219,364.648071 379.798920,358.793884 378.078949,352.534546 
	C391.009277,352.534546 403.850037,352.534546 417.028687,352.534546 
	C417.028687,386.778778 417.028687,420.983582 417.028687,455.673584 
	C415.174164,455.673584 413.544922,455.673584 411.915680,455.673584 
	C402.417084,455.673584 392.896454,456.090637 383.424377,455.589264 
	C361.786804,454.443939 340.601410,457.914703 319.366180,461.091614 
	C315.502319,461.669678 312.728149,463.704803 312.246735,467.663910 
	C311.887451,470.619019 310.339172,470.872131 307.916199,471.086212 
	C304.057587,471.427124 300.258179,472.393921 296.405029,472.857544 
	C294.089508,473.136169 291.765411,473.798462 290.380554,470.409424 
	C288.854675,466.675446 285.276703,466.207642 281.463623,466.776764 
	C259.406738,470.069092 237.335190,473.263153 215.271393,476.509491 
	C205.721481,477.914581 196.186493,479.423279 186.629013,480.773712 
	C180.611420,481.623993 175.064240,480.218781 169.868362,476.447571 
z"/>
<path fill="#FDC9BC" opacity="1.000000" stroke="none" 
	d="
M38.087067,273.872681 
	C45.884472,273.735413 51.603340,276.919403 56.378559,282.335876 
	C74.229248,302.583710 92.206383,322.720367 109.997452,343.020203 
	C114.528343,348.190033 119.863457,351.738464 126.337494,353.972656 
	C150.209946,362.210876 174.026550,370.610931 197.863113,378.953064 
	C199.192673,379.418365 200.512909,379.910278 202.493134,380.627167 
	C193.378586,386.062622 184.480713,390.624268 176.460007,396.403320 
	C170.727509,400.533661 165.974838,400.596222 159.757736,397.915558 
	C145.729065,391.866669 131.302368,386.742950 117.251862,380.741302 
	C113.646950,379.201385 110.145828,376.312469 107.793289,373.152649 
	C100.541260,363.412079 93.919273,353.204834 86.957672,343.245178 
	C75.836601,327.334747 59.293621,322.221222 40.877415,328.653961 
	C39.538433,329.121674 37.054352,328.449066 36.058472,327.399597 
	C31.132156,322.208191 26.451601,316.775696 21.828197,311.306671 
	C15.837302,304.220032 14.138942,296.227570 17.903723,287.592377 
	C21.615732,279.078217 28.249628,274.400330 38.087067,273.872681 
z"/>
<path fill="#DB626D" opacity="1.000000" stroke="none" 
	d="
M475.974091,474.984680 
	C461.684174,474.984680 447.394287,474.984680 432.714050,474.984680 
	C432.714050,434.216827 432.714050,393.553619 432.714050,352.228363 
	C446.884155,352.228363 460.957336,352.228363 475.495300,352.764526 
	C475.964783,393.862000 475.969452,434.423340 475.974091,474.984680 
z"/>
<path fill="#DCE9F9" opacity="1.000000" stroke="none" 
	d="
M392.441223,211.815277 
	C399.057495,203.132721 399.166199,193.008713 399.105499,182.536926 
	C398.862061,140.543762 398.841400,98.547188 399.140350,56.554745 
	C399.201447,47.975063 397.410858,40.500252 392.039337,33.512581 
	C395.479706,33.119167 398.975922,32.925846 402.462677,33.034813 
	C413.208557,33.370644 421.871399,41.738930 421.904114,52.536892 
	C422.045319,99.159302 422.048920,145.782654 421.897919,192.404999 
	C421.863068,203.158081 413.233337,211.421341 402.388519,211.889206 
	C399.230835,212.025436 396.062195,211.908951 392.441223,211.815277 
z"/>
<path fill="#D94A54" opacity="1.000000" stroke="none" 
	d="
M476.437012,475.081757 
	C475.969452,434.423340 475.964783,393.862000 475.950562,352.860596 
	C483.061035,352.420502 490.181091,352.420502 497.650085,352.420502 
	C497.650085,393.201477 497.650085,433.867218 497.650085,475.178833 
	C490.732330,475.178833 483.816132,475.178833 476.437012,475.081757 
z"/>
<path fill="#030304" opacity="1.000000" stroke="none" 
	d="
M306.231201,156.171997 
	C300.336548,163.000565 293.221924,166.286850 284.516113,166.224930 
	C277.027863,166.171661 269.538055,166.356659 262.049500,166.319382 
	C255.448578,166.286530 252.875641,163.805298 252.863678,157.386627 
	C252.820251,134.084579 252.821655,110.782356 252.863281,87.480301 
	C252.874466,81.221077 255.342789,78.629265 261.535217,78.468842 
	C267.523224,78.313698 273.519379,78.356903 279.510101,78.442741 
	C301.145325,78.752754 312.032745,97.810501 301.202698,117.026306 
	C307.395325,122.470726 311.769012,129.034790 312.138947,137.743118 
	C312.426971,144.523666 310.526764,150.523056 306.231201,156.171997 
M294.929749,146.212463 
	C299.418610,137.802979 296.251984,128.768936 287.648804,127.503548 
	C281.218079,126.557701 274.536591,127.316956 268.147888,127.316956 
	C268.147888,135.484650 268.147888,143.235931 268.147888,151.174927 
	C273.731598,151.174927 279.099152,151.702896 284.296814,150.990891 
	C287.812378,150.509308 291.088837,148.282516 294.929749,146.212463 
M289.242767,107.606003 
	C292.446777,99.661804 289.005615,93.910385 280.631226,93.483246 
	C276.520081,93.273552 272.389374,93.446907 268.060364,93.446907 
	C268.060364,99.807457 268.060364,105.710045 268.060364,112.041885 
	C272.016602,112.041885 275.884644,112.529213 279.559143,111.894974 
	C282.771454,111.340485 285.765961,109.524200 289.242767,107.606003 
z"/>
<path fill="#040404" opacity="1.000000" stroke="none" 
	d="
M199.546616,78.704193 
	C224.731232,80.957924 242.205795,101.571861 240.237045,126.227875 
	C238.301590,150.467224 217.480591,167.804550 192.357162,166.096756 
	C169.082535,164.514648 151.448853,143.385925 152.877808,118.792473 
	C154.228226,95.550865 174.942749,77.581863 199.546616,78.704193 
M182.176727,147.509689 
	C193.630737,153.377243 204.743225,152.886566 214.792740,144.723831 
	C224.333359,136.974472 227.439117,126.598114 224.336411,114.746468 
	C221.020737,102.081306 209.817902,93.695198 196.811172,93.546356 
	C184.165039,93.401649 172.765350,101.695137 168.993469,113.784294 
	C165.017319,126.528137 169.725616,139.004623 182.176727,147.509689 
z"/>
<path fill="#040405" opacity="1.000000" stroke="none" 
	d="
M378.989624,95.498634 
	C375.243805,101.695068 371.951599,102.462219 366.207825,98.674774 
	C360.458435,94.883629 354.331818,92.698959 347.362885,93.954239 
	C342.991455,94.741638 339.402710,96.630714 338.711975,101.566292 
	C338.024536,106.478241 341.434357,108.127365 345.226898,109.575592 
	C351.581573,112.002182 357.956696,114.409775 364.159851,117.189850 
	C372.348419,120.859734 378.920502,126.267822 381.058716,135.550049 
	C384.267914,149.481537 373.509155,163.764648 357.789642,165.862259 
	C344.342682,167.656586 332.421021,163.877350 322.603882,154.279327 
	C318.663452,150.426895 318.371887,146.180206 321.589844,142.876495 
	C324.702454,139.681000 329.110626,139.869217 333.051361,143.621811 
	C339.088257,149.370483 346.257111,152.017471 354.446991,150.988480 
	C357.409302,150.616302 360.591278,149.244095 362.953461,147.404312 
	C368.210541,143.309906 368.022461,137.470627 362.551056,133.659225 
	C359.471954,131.514328 355.807465,130.169357 352.323334,128.655975 
	C347.303741,126.475677 342.226593,124.423935 337.140961,122.400383 
	C329.111511,119.205467 324.619385,113.267998 323.743835,104.763107 
	C322.851898,96.099007 326.026855,88.880615 333.191833,84.051559 
	C345.811615,75.546059 358.715637,77.404327 371.358704,84.236000 
	C375.590820,86.522804 380.120728,88.919304 378.989624,95.498634 
z"/>
<path fill="#050505" opacity="1.000000" stroke="none" 
	d="
M140.315445,127.000130 
	C140.271912,133.661316 140.443344,139.833313 140.134140,145.981155 
	C139.678955,155.031830 133.824661,162.430618 125.286407,165.313492 
	C117.606392,167.906586 107.423180,165.163269 101.957809,158.994370 
	C99.145805,155.820404 98.824104,152.292160 101.468498,149.031021 
	C104.107063,145.777069 107.599678,145.243668 111.284889,147.477966 
	C112.274475,148.077942 113.092812,148.956039 114.068932,149.583252 
	C119.683449,153.190918 124.881371,150.617538 125.222916,143.954575 
	C125.427292,139.967438 125.286240,135.962189 125.287209,131.965088 
	C125.290749,117.308479 125.314468,102.651787 125.271034,87.995308 
	C125.259949,84.252518 126.083954,80.946404 129.723282,79.208672 
	C135.000885,76.688683 140.219223,80.482819 140.277466,87.027565 
	C140.394547,100.184158 140.314270,113.342514 140.315445,127.000130 
z"/>
<path fill="#EAF2FD" opacity="1.000000" stroke="none" 
	d="
M294.700989,146.524384 
	C291.088837,148.282516 287.812378,150.509308 284.296814,150.990891 
	C279.099152,151.702896 273.731598,151.174927 268.147888,151.174927 
	C268.147888,143.235931 268.147888,135.484650 268.147888,127.316956 
	C274.536591,127.316956 281.218079,126.557701 287.648804,127.503548 
	C296.251984,128.768936 299.418610,137.802979 294.700989,146.524384 
z"/>
<path fill="#E6EEF8" opacity="1.000000" stroke="none" 
	d="
M289.049744,107.935684 
	C285.765961,109.524200 282.771454,111.340485 279.559143,111.894974 
	C275.884644,112.529213 272.016602,112.041885 268.060364,112.041885 
	C268.060364,105.710045 268.060364,99.807457 268.060364,93.446907 
	C272.389374,93.446907 276.520081,93.273552 280.631226,93.483246 
	C289.005615,93.910385 292.446777,99.661804 289.049744,107.935684 
z"/>
<path fill="#EAF2FD" opacity="1.000000" stroke="none" 
	d="
M181.869553,147.300140 
	C169.725616,139.004623 165.017319,126.528137 168.993469,113.784294 
	C172.765350,101.695137 184.165039,93.401649 196.811172,93.546356 
	C209.817902,93.695198 221.020737,102.081306 224.336411,114.746468 
	C227.439117,126.598114 224.333359,136.974472 214.792740,144.723831 
	C204.743225,152.886566 193.630737,153.377243 181.869553,147.300140 
z"/>
</svg>